<svg id="圖層_1" data-name="圖層 1" xmlns="http://www.w3.org/2000/svg" viewBox="0 0 101 74"><defs><style>.cls-1{fill:#efecea;}.cls-2{fill:#ff8728;}</style></defs><path class="cls-1" d="M11.17,58a11.38,11.38,0,0,1-5-9.85V26.73a11.33,11.33,0,0,1,5-9.87q5-3.52,14.59-3.52t14.6,3.5a11.36,11.36,0,0,1,5,9.89V48.15a11.35,11.35,0,0,1-5,9.87q-5,3.51-14.58,3.51T11.17,58Zm21.11-5.72A6.64,6.64,0,0,0,34.36,47V27.86a6.64,6.64,0,0,0-2.08-5.27q-2.07-1.83-6.5-1.83t-6.51,1.83a6.64,6.64,0,0,0-2.08,5.27V47a6.64,6.64,0,0,0,2.08,5.27q2.07,1.83,6.51,1.83T32.28,52.28Z"/><path class="cls-2" d="M57.3,54.18,80.52,32.59a14.19,14.19,0,0,0,2.8-3.42,6.76,6.76,0,0,0,1-3.29v-.06a4.09,4.09,0,0,0-2.06-3.66,10.9,10.9,0,0,0-5.84-1.3,10,10,0,0,0-5.88,1.57,6.46,6.46,0,0,0-2.7,4.46v0H56.47v0a14.2,14.2,0,0,1,3.23-7.26A16.24,16.24,0,0,1,66.54,15a27.78,27.78,0,0,1,9.78-1.59A33.49,33.49,0,0,1,86.8,14.88a14.09,14.09,0,0,1,6.62,4.2,10,10,0,0,1,2.29,6.64v0a12.39,12.39,0,0,1-1.55,5.79A20.88,20.88,0,0,1,89.89,37l-18,16.59H96.08v7.43H57.3Z"/></svg>