<svg id="圖層_1" data-name="圖層 1" xmlns="http://www.w3.org/2000/svg" viewBox="0 0 100.12 72.61"><defs><style>.cls-1{fill:#efecea;}.cls-2{fill:#ff8728;}</style></defs><path class="cls-1" d="M6.22,68Q.92,62.69.93,53.16V20.88Q.93,11.31,6.25,6T21.68.72Q31.84.72,37.13,6t5.3,14.89V53.16q0,9.57-5.32,14.87t-15.43,5.3Q11.53,73.33,6.22,68Zm22.34-8.62c1.47-1.83,2.2-4.48,2.2-7.93V22.59q0-5.18-2.2-7.93c-1.46-1.84-3.76-2.76-6.88-2.76s-5.42.92-6.89,2.76-2.19,4.48-2.19,7.93V51.45c0,3.45.73,6.1,2.19,7.93s3.76,2.76,6.89,2.76S27.1,61.22,28.56,59.38Z" transform="translate(-0.93 -0.72)"/><path class="cls-2" d="M60,62.24,84.59,29.72a21.47,21.47,0,0,0,3-5.15,13.57,13.57,0,0,0,1-5v-.09A7,7,0,0,0,86.42,14a9,9,0,0,0-6.18-1.95A8.44,8.44,0,0,0,74,14.41a10.92,10.92,0,0,0-2.86,6.72v.05h-12v-.05a26.21,26.21,0,0,1,3.42-10.94,18.4,18.4,0,0,1,7.22-6.93A21.66,21.66,0,0,1,80.14.86,25.74,25.74,0,0,1,91.23,3a15.63,15.63,0,0,1,7,6.32,19.58,19.58,0,0,1,2.41,10v.05A25,25,0,0,1,99,28.13a32.75,32.75,0,0,1-4.52,8.28l-19,25H101V72.59H60Z" transform="translate(-0.93 -0.72)"/></svg>