<svg xmlns="http://www.w3.org/2000/svg" xmlns:xlink="http://www.w3.org/1999/xlink" viewBox="0 0 296 358.87"><defs><style>.cls-1,.cls-2{fill:none;}.cls-2{stroke:#efecea;stroke-miterlimit:10;stroke-width:1.05px;}.cls-3{fill:url(#新增圖樣色票_5);}.cls-4{font-size:14px;fill:#323232;font-family:NotoSansCJKtc-Regular-B5pc-H, Noto Sans CJK TC;letter-spacing:0.02em;}.cls-5{font-family:NotoSansCJKtc-Light-B5pc-H, Noto Sans CJK TC;}.cls-6{letter-spacing:-0.05em;}</style><pattern id="新增圖樣色票_5" data-name="新增圖樣色票 5" width="66.49" height="88.3" patternTransform="translate(-77.89 -269.09) scale(0.5)" patternUnits="userSpaceOnUse" viewBox="0 0 66.49 88.3"><rect class="cls-1" width="66.49" height="88.3"/><line class="cls-2" x1="65.96" y1="22.34" x2="0.52" y2="22.34"/><line class="cls-2" x1="65.96" y1="44.15" x2="0.52" y2="44.15"/><line class="cls-2" x1="65.96" y1="65.96" x2="0.52" y2="65.96"/><line class="cls-2" x1="44.15" y1="87.78" x2="44.15" y2="0.52"/><line class="cls-2" x1="22.34" y1="87.78" x2="22.34" y2="0.52"/><polygon class="cls-2" points="0.52 87.78 0.52 0.52 65.96 0.52 65.96 87.78 0.52 87.78"/></pattern></defs><title>資產 20</title><g id="圖層_2" data-name="圖層 2"><g id="main"><rect class="cls-3" width="296" height="358.87"/><text class="cls-4" transform="translate(5 112.19)">五洞堂<tspan class="cls-5"><tspan x="0" y="22">06-2202868</tspan><tspan x="0" y="44">台南市中西區正興街100號</tspan></tspan></text><text class="cls-4" transform="translate(5 30.19)">33+<tspan class="cls-6" x="24.15" y="0">V</tspan><tspan x="31.46" y="0">.</tspan><tspan class="cls-5"><tspan x="0" y="22">05-2774567</tspan><tspan x="0" y="44">嘉義市東區義教東路49號</tspan></tspan></text><text class="cls-4" transform="translate(5 194.19)">城市之光<tspan class="cls-5"><tspan x="0" y="22">07–9585066</tspan><tspan x="0" y="44">高雄市新興區中正三路177號B1</tspan></tspan></text><text class="cls-4" transform="translate(5 276.19)">日食糖224<tspan class="cls-5"><tspan x="0" y="22">08–7669881</tspan><tspan x="0" y="44">屏東市康定街22號</tspan></tspan></text></g></g></svg>