<svg xmlns="http://www.w3.org/2000/svg" xmlns:xlink="http://www.w3.org/1999/xlink" viewBox="0 0 296 358.87"><defs><style>.cls-1,.cls-2{fill:none;}.cls-2{stroke:#efecea;stroke-miterlimit:10;stroke-width:1.05px;}.cls-3{fill:url(#新增圖樣色票_5);}.cls-4,.cls-6{font-size:14px;fill:#323232;font-family:NotoSansCJKtc-Regular-B5pc-H, Noto Sans CJK TC;}.cls-13,.cls-4{letter-spacing:0.02em;}.cls-13,.cls-5{font-family:NotoSansCJKtc-Light-B5pc-H, Noto Sans CJK TC;}.cls-6{letter-spacing:-0.06em;}.cls-7{letter-spacing:0.02em;}.cls-8{letter-spacing:-0.06em;}.cls-9{letter-spacing:0.02em;}.cls-10{letter-spacing:-0.01em;}.cls-11{letter-spacing:-0.06em;}.cls-12{letter-spacing:-0.03em;}</style><pattern id="新增圖樣色票_5" data-name="新增圖樣色票 5" width="66.49" height="88.3" patternTransform="translate(-69.47 -224.94) scale(0.5)" patternUnits="userSpaceOnUse" viewBox="0 0 66.49 88.3"><rect class="cls-1" width="66.49" height="88.3"/><line class="cls-2" x1="65.96" y1="22.34" x2="0.52" y2="22.34"/><line class="cls-2" x1="65.96" y1="44.15" x2="0.52" y2="44.15"/><line class="cls-2" x1="65.96" y1="65.96" x2="0.52" y2="65.96"/><line class="cls-2" x1="44.15" y1="87.78" x2="44.15" y2="0.52"/><line class="cls-2" x1="22.34" y1="87.78" x2="22.34" y2="0.52"/><polygon class="cls-2" points="0.52 87.78 0.52 0.52 65.96 0.52 65.96 87.78 0.52 87.78"/></pattern></defs><title>資產 18</title><g id="圖層_2" data-name="圖層 2"><g id="main"><rect class="cls-3" width="296" height="358.87"/><text class="cls-4" transform="translate(5 112.19)">小小書房<tspan class="cls-5"><tspan x="0" y="22">02-2923 1925</tspan><tspan x="0" y="44">新北市永和區文化路192巷4弄2–1號</tspan></tspan></text><text class="cls-4" transform="translate(5 30.19)">青鳥書店<tspan class="cls-5"><tspan x="0" y="22">02-2341 8865</tspan><tspan x="0" y="44">台北市中正區八德路一段1號玻璃屋2樓</tspan></tspan></text><text class="cls-6" transform="translate(5 194.19)">T<tspan class="cls-7" x="7.53" y="0">ama </tspan><tspan class="cls-8" x="40.54" y="0">T</tspan><tspan class="cls-9" x="48.08" y="0">ama /</tspan><tspan class="cls-10" x="86.85" y="0"> </tspan><tspan class="cls-11" x="89.89" y="0">たまた</tspan><tspan class="cls-12" x="129.5" y="0">ま</tspan><tspan class="cls-7" x="143.08" y="0" xml:space="preserve"> 慢食堂</tspan><tspan class="cls-13"><tspan x="0" y="22">03-336 2667</tspan><tspan x="0" y="44">桃園市鎮三街52號</tspan></tspan></text></g></g></svg>