<svg xmlns="http://www.w3.org/2000/svg" viewBox="0 0 35 35"><defs><style>.cls-1{fill:#5a5a5a;}.cls-2{fill:#efecea;}</style></defs><title>資產 3</title><g id="圖層_2" data-name="圖層 2"><g id="main"><path class="cls-1" d="M35,17.5A17.5,17.5,0,1,1,17.5,0,17.51,17.51,0,0,1,35,17.5"/><path class="cls-2" d="M29.17,8.24a2.1,2.1,0,0,0-.43-.05H6.26a2,2,0,0,0-.66.12A2,2,0,0,0,4.25,10.2V24.79a2,2,0,0,0,1.2,1.84,2,2,0,0,0,.39.13l.57,0H28.74a2,2,0,0,0,.6-.09,2,2,0,0,0,1.41-1.92V10.2a2,2,0,0,0-1.58-2m-2.64.95-8,6.9-.86-.74a.49.49,0,0,0-.32-.12.52.52,0,0,0-.33.12l-.86.74-8-6.9ZM5.42,25.35a1,1,0,0,1-.17-.56V10.2a1,1,0,0,1,1-1h.36l8.77,7.56Zm1,.46.44-.38,1-.89,8.28-7.13.77-.66.42-.36.41.36.77.66,8.38,7.21,1.37,1.19Zm23.34-1a1,1,0,0,1-.29.71L19.3,16.75l8.77-7.56h.67a1,1,0,0,1,1,1Z"/></g></g></svg>