<svg xmlns="http://www.w3.org/2000/svg" viewBox="0 0 35 35"><defs><style>.cls-1{fill:#5a5a5a;}.cls-2{fill:#efecea;}</style></defs><title>資產 2</title><g id="圖層_2" data-name="圖層 2"><g id="main"><path class="cls-1" d="M35,17.5A17.5,17.5,0,1,1,17.5,0,17.51,17.51,0,0,1,35,17.5"/><path class="cls-2" d="M22.81,7H12.19A5.24,5.24,0,0,0,7,12.18V22.82a5.24,5.24,0,0,0,5.24,5.23H22.81a5.24,5.24,0,0,0,5.24-5.23V12.18A5.24,5.24,0,0,0,22.81,7m4.07,15.87a4.07,4.07,0,0,1-4.07,4.06H12.19a4.07,4.07,0,0,1-4.07-4.06V12.18a4.07,4.07,0,0,1,4.07-4.06H22.81a4.07,4.07,0,0,1,4.07,4.06Z"/><path class="cls-2" d="M17.43,12.75a4.68,4.68,0,1,0,4.68,4.68,4.69,4.69,0,0,0-4.68-4.68m0,8.19a3.51,3.51,0,1,1,3.51-3.51,3.51,3.51,0,0,1-3.51,3.51"/><path class="cls-2" d="M25.27,11.75a1.48,1.48,0,1,1-1.48-1.49,1.48,1.48,0,0,1,1.48,1.49"/></g></g></svg>